<svg
  xmlns="http://www.w3.org/2000/svg"
  width="24"
  height="24"
  viewBox="0 0 24 24"
  shape-rendering="crispEdges"
>
  <path
    fill="#000"
    d="M9 1h2v1H9z M8 2h1v1H8z M11 2h1v1H11z M8 3h1v1H8z M11 3h1v1H11z M8 4h1v1H8z M11 4h1v1H11z M8 5h1v1H8z M11 5h1v1H11z M8 6h1v1H8z M11 6h3v1H11z M8 7h1v1H8z M11 7h1v1H11z M14 7h3v1H14z M8 8h1v1H8z M11 8h1v1H11z M14 8h1v1H14z M17 8h2v1H17z M8 9h1v1H8z M11 9h1v1H11z M14 9h1v1H14z M17 9h1v1H17z M19 9h1v1H19z M4 10h3v1H4z M8 10h1v1H8z M11 10h1v1H11z M14 10h1v1H14z M17 10h1v1H17z M20 10h1v1H20z M4 11h1v1H4z M7 11h2v1H7z M17 11h1v1H17z M20 11h1v1H20z M4 12h1v1H4z M8 12h1v1H8z M20 12h1v1H20z M5 13h1v1H5z M8 13h1v1H8z M20 13h1v1H20z M6 14h1v1H6z M8 14h1v1H8z M20 14h1v1H20z M6 15h1v1H6z M20 15h1v1H20z M7 16h1v1H7z M20 16h1v1H20z M7 17h1v1H7z M19 17h1v1H19z M8 18h1v1H8z M19 18h1v1H19z M8 19h1v1H8z M19 19h1v1H19z M9 20h1v1H9z M18 20h1v1H18z M9 21h1v1H9z M18 21h1v1H18z M9 22h10v1H9z"
  />
</svg>
